<svg width="60" height="60" viewBox="0 0 60 60" fill="none" xmlns="http://www.w3.org/2000/svg">
<g clip-path="url(#clip0_22_117)">
<path fill-rule="evenodd" clip-rule="evenodd" d="M42.5 10C44.4891 10 46.3968 10.7902 47.8033 12.1967C49.2098 13.6032 50 15.5109 50 17.5V22.925C52.9125 23.9575 55 26.735 55 30V42.5C55 43.163 54.7366 43.7989 54.2678 44.2678C53.7989 44.7366 53.163 45 52.5 45H50V47.5C50 48.163 49.7366 48.7989 49.2678 49.2678C48.7989 49.7366 48.163 50 47.5 50C46.837 50 46.2011 49.7366 45.7322 49.2678C45.2634 48.7989 45 48.163 45 47.5V45H15V47.5C15 48.163 14.7366 48.7989 14.2678 49.2678C13.7989 49.7366 13.163 50 12.5 50C11.837 50 11.2011 49.7366 10.7322 49.2678C10.2634 48.7989 10 48.163 10 47.5V45H7.5C6.83696 45 6.20107 44.7366 5.73223 44.2678C5.26339 43.7989 5 43.163 5 42.5V30C5 26.735 7.0875 23.9575 10 22.925V17.5C10 15.5109 10.7902 13.6032 12.1967 12.1967C13.6032 10.7902 15.5109 10 17.5 10H42.5ZM50 35H10V40H50V35ZM47.5 27.5H12.5C11.837 27.5 11.2011 27.7634 10.7322 28.2322C10.2634 28.7011 10 29.337 10 30H50C50 29.337 49.7366 28.7011 49.2678 28.2322C48.7989 27.7634 48.163 27.5 47.5 27.5ZM42.5 15H17.5C16.8877 15.0001 16.2967 15.2249 15.8391 15.6318C15.3815 16.0387 15.0891 16.5994 15.0175 17.2075L15 17.5V22.5H45V17.5C44.9999 16.8877 44.7751 16.2967 44.3682 15.8391C43.9613 15.3815 43.4006 15.0891 42.7925 15.0175L42.5 15Z" fill="#2563EB"/>
</g>
<defs>
<clipPath id="clip0_22_117">
<rect width="60" height="60" fill="white"/>
</clipPath>
</defs>
</svg>
