<svg width="60" height="60" viewBox="0 0 60 60" fill="none" xmlns="http://www.w3.org/2000/svg">
<g clip-path="url(#clip0_21_59)">
<path fill-rule="evenodd" clip-rule="evenodd" d="M22.5 10C22.5 9.33696 22.7634 8.70107 23.2322 8.23223C23.7011 7.76339 24.337 7.5 25 7.5H35C35.663 7.5 36.2989 7.76339 36.7678 8.23223C37.2366 8.70107 37.5 9.33696 37.5 10C37.5 10.663 37.2366 11.2989 36.7678 11.7678C36.2989 12.2366 35.663 12.5 35 12.5H32.5V15.0875C46.1 16.3125 55.025 30.4175 49.8225 43.4275C49.637 43.8918 49.3166 44.2898 48.9025 44.5701C48.4885 44.8504 48 45.0002 47.5 45H12.5C12.0004 44.9997 11.5124 44.8497 11.0989 44.5694C10.6854 44.2891 10.3653 43.8914 10.18 43.4275C4.975 30.4175 13.9 16.3125 27.5 15.0875V12.5H25C24.337 12.5 23.7011 12.2366 23.2322 11.7678C22.7634 11.2989 22.5 10.663 22.5 10ZM29.425 20C18.86 20 11.465 30.1325 14.2825 40H45.7175C48.535 30.1325 41.14 20 30.575 20H29.425ZM7.5 50C7.5 49.337 7.76339 48.7011 8.23223 48.2322C8.70107 47.7634 9.33696 47.5 10 47.5H50C50.663 47.5 51.2989 47.7634 51.7678 48.2322C52.2366 48.7011 52.5 49.337 52.5 50C52.5 50.663 52.2366 51.2989 51.7678 51.7678C51.2989 52.2366 50.663 52.5 50 52.5H10C9.33696 52.5 8.70107 52.2366 8.23223 51.7678C7.76339 51.2989 7.5 50.663 7.5 50Z" fill="#2563EB"/>
</g>
<defs>
<clipPath id="clip0_21_59">
<rect width="60" height="60" fill="white"/>
</clipPath>
</defs>
</svg>
