<svg width="60" height="60" viewBox="0 0 60 60" fill="none" xmlns="http://www.w3.org/2000/svg">
<g clip-path="url(#clip0_22_122)">
<path fill-rule="evenodd" clip-rule="evenodd" d="M39.0175 9.3825L39.085 9.265C39.4189 8.69549 39.9645 8.28115 40.6027 8.11241C41.2409 7.94367 41.92 8.03423 42.4917 8.36432C43.0635 8.69441 43.4814 9.23724 43.6544 9.87434C43.8273 10.5114 43.7413 11.1911 43.415 11.765L43.3475 11.8825C47.4137 14.88 50.3535 19.1581 51.6939 24.0287C53.0343 28.8992 52.6974 34.0791 50.7375 38.735C49.5325 41.585 46.2125 42.2475 43.905 40.915L30.94 33.43L23.025 47.5H50C50.663 47.5 51.2989 47.7634 51.7678 48.2322C52.2366 48.7011 52.5 49.337 52.5 50C52.5 50.663 52.2366 51.2989 51.7678 51.7678C51.2989 52.2366 50.663 52.5 50 52.5H10C9.33696 52.5 8.70107 52.2366 8.23223 51.7678C7.76339 51.2989 7.5 50.663 7.5 50C7.5 49.337 7.76339 48.7011 8.23223 48.2322C8.70107 47.7634 9.33696 47.5 10 47.5H17.2875L26.61 30.93L13.595 23.415C11.285 22.0825 10.2 18.875 12.0675 16.4075C15.1199 12.3824 19.4374 9.50098 24.3256 8.22678C29.2139 6.95257 34.3886 7.35964 39.0175 9.3825ZM44.2675 19.8625L44.13 20.8125C43.5825 24.105 42.285 27.925 40.3575 31.83L39.8625 32.8075L46.2525 36.4975C47.3376 33.7798 47.7247 30.8335 47.3784 27.9277C47.0321 25.0219 45.9609 22.2491 44.2675 19.8625ZM38.8175 14.8975L38.75 14.845L38.67 14.81C38.52 14.765 38.17 14.72 37.4775 14.9525C36.5875 15.25 35.4225 15.915 34.0675 17.0325C31.99 18.74 29.705 21.3 27.555 24.4825L26.9725 25.365L35.5275 30.305C37.48 26.5025 38.715 22.89 39.1975 19.995C39.485 18.26 39.48 16.92 39.2925 16.0025C39.145 15.285 38.9325 15.0025 38.8175 14.8975ZM16.25 19.1725L22.64 22.8625C25.2125 18.835 28.1025 15.465 30.8925 13.17C31.1425 12.965 31.3925 12.765 31.6475 12.5725C28.734 12.299 25.7983 12.7597 23.1087 13.9126C20.419 15.0655 18.061 16.8738 16.25 19.1725Z" fill="#2563EB"/>
</g>
<defs>
<clipPath id="clip0_22_122">
<rect width="60" height="60" fill="white"/>
</clipPath>
</defs>
</svg>
